<mxfile host="app.diagrams.net" agent="Mozilla/5.0 (Windows NT 10.0; Win64; x64) AppleWebKit/537.36 (KHTML, like Gecko) Chrome/135.0.0.0 Safari/537.36" version="26.2.5">
  <diagram name="Page-1" id="X-rV9KMXyf-AHJXXWIQ6">
    <mxGraphModel dx="1212" dy="812" grid="1" gridSize="10" guides="1" tooltips="1" connect="1" arrows="1" fold="1" page="1" pageScale="1" pageWidth="1169" pageHeight="827" math="0" shadow="0">
      <root>
        <mxCell id="0" />
        <mxCell id="1" parent="0" />
        <mxCell id="5DzCrRQK-NwIQtgQuj1R-24" value="Container B" style="shape=cube;whiteSpace=wrap;html=1;boundedLbl=1;backgroundOutline=1;darkOpacity=0.05;darkOpacity2=0.1;size=10;fillColor=none;align=center;labelPosition=center;verticalLabelPosition=middle;verticalAlign=top;fontStyle=1;fontSize=11;" vertex="1" parent="1">
          <mxGeometry x="580" y="195" width="110" height="90" as="geometry" />
        </mxCell>
        <mxCell id="5DzCrRQK-NwIQtgQuj1R-22" value="Container A" style="shape=cube;whiteSpace=wrap;html=1;boundedLbl=1;backgroundOutline=1;darkOpacity=0.05;darkOpacity2=0.1;size=10;fillColor=none;align=center;labelPosition=center;verticalLabelPosition=middle;verticalAlign=top;fontStyle=1;fontSize=11;" vertex="1" parent="1">
          <mxGeometry x="820" y="195" width="110" height="90" as="geometry" />
        </mxCell>
        <mxCell id="5DzCrRQK-NwIQtgQuj1R-26" value="Container D" style="shape=cube;whiteSpace=wrap;html=1;boundedLbl=1;backgroundOutline=1;darkOpacity=0.05;darkOpacity2=0.1;size=10;fillColor=none;align=center;labelPosition=center;verticalLabelPosition=middle;verticalAlign=top;fontStyle=1;fontSize=11;" vertex="1" parent="1">
          <mxGeometry x="120" y="120" width="140" height="240" as="geometry" />
        </mxCell>
        <mxCell id="5DzCrRQK-NwIQtgQuj1R-25" value="Container C" style="shape=cube;whiteSpace=wrap;html=1;boundedLbl=1;backgroundOutline=1;darkOpacity=0.05;darkOpacity2=0.1;size=10;fillColor=none;align=center;labelPosition=center;verticalLabelPosition=middle;verticalAlign=top;fontStyle=1;fontSize=11;" vertex="1" parent="1">
          <mxGeometry x="320" y="120" width="140" height="240" as="geometry" />
        </mxCell>
        <mxCell id="5DzCrRQK-NwIQtgQuj1R-17" style="rounded=0;orthogonalLoop=1;jettySize=auto;html=1;startArrow=classic;startFill=1;fontSize=11;" edge="1" parent="1" source="5DzCrRQK-NwIQtgQuj1R-8" target="5DzCrRQK-NwIQtgQuj1R-9">
          <mxGeometry relative="1" as="geometry" />
        </mxCell>
        <mxCell id="5DzCrRQK-NwIQtgQuj1R-8" value="Database&lt;div&gt;&lt;i&gt;Postgres&lt;/i&gt;&lt;/div&gt;" style="strokeWidth=2;html=1;shape=mxgraph.flowchart.database;whiteSpace=wrap;verticalAlign=bottom;fontSize=11;" vertex="1" parent="1">
          <mxGeometry x="360" y="270" width="60" height="60" as="geometry" />
        </mxCell>
        <mxCell id="5DzCrRQK-NwIQtgQuj1R-18" value="REST API&lt;div&gt;request - response&lt;/div&gt;" style="rounded=0;orthogonalLoop=1;jettySize=auto;html=1;startArrow=classic;startFill=1;fontSize=11;" edge="1" parent="1" source="5DzCrRQK-NwIQtgQuj1R-9" target="5DzCrRQK-NwIQtgQuj1R-10">
          <mxGeometry relative="1" as="geometry" />
        </mxCell>
        <mxCell id="5DzCrRQK-NwIQtgQuj1R-9" value="Back-End&lt;div&gt;&lt;i&gt;FastAPI&lt;/i&gt;&lt;/div&gt;" style="rounded=1;whiteSpace=wrap;html=1;absoluteArcSize=1;arcSize=14;strokeWidth=2;fontSize=11;" vertex="1" parent="1">
          <mxGeometry x="600" y="235" width="80" height="40" as="geometry" />
        </mxCell>
        <mxCell id="5DzCrRQK-NwIQtgQuj1R-10" value="Front-End&lt;div&gt;&lt;i&gt;Streamlit&lt;/i&gt;&lt;/div&gt;" style="rounded=1;whiteSpace=wrap;html=1;absoluteArcSize=1;arcSize=14;strokeWidth=2;fontSize=11;" vertex="1" parent="1">
          <mxGeometry x="840" y="235" width="80" height="40" as="geometry" />
        </mxCell>
        <mxCell id="5DzCrRQK-NwIQtgQuj1R-15" style="rounded=0;orthogonalLoop=1;jettySize=auto;html=1;fontSize=11;" edge="1" parent="1" source="5DzCrRQK-NwIQtgQuj1R-11" target="5DzCrRQK-NwIQtgQuj1R-8">
          <mxGeometry relative="1" as="geometry" />
        </mxCell>
        <mxCell id="5DzCrRQK-NwIQtgQuj1R-16" value="FTP" style="rounded=0;orthogonalLoop=1;jettySize=auto;html=1;fontSize=11;" edge="1" parent="1" source="5DzCrRQK-NwIQtgQuj1R-11" target="5DzCrRQK-NwIQtgQuj1R-13">
          <mxGeometry relative="1" as="geometry" />
        </mxCell>
        <mxCell id="5DzCrRQK-NwIQtgQuj1R-27" value="Watchdog" style="rounded=0;orthogonalLoop=1;jettySize=auto;html=1;fontSize=11;" edge="1" parent="1" source="5DzCrRQK-NwIQtgQuj1R-11" target="5DzCrRQK-NwIQtgQuj1R-12">
          <mxGeometry relative="1" as="geometry" />
        </mxCell>
        <mxCell id="5DzCrRQK-NwIQtgQuj1R-11" value="ETL&lt;div&gt;&lt;i&gt;Python&lt;/i&gt;&lt;/div&gt;" style="rounded=1;whiteSpace=wrap;html=1;absoluteArcSize=1;arcSize=14;strokeWidth=2;fontSize=11;" vertex="1" parent="1">
          <mxGeometry x="150" y="180" width="80" height="40" as="geometry" />
        </mxCell>
        <mxCell id="5DzCrRQK-NwIQtgQuj1R-12" value="PDF Input" style="strokeWidth=2;html=1;shape=mxgraph.flowchart.multi-document;whiteSpace=wrap;fontSize=11;" vertex="1" parent="1">
          <mxGeometry x="146" y="280" width="88" height="60" as="geometry" />
        </mxCell>
        <mxCell id="5DzCrRQK-NwIQtgQuj1R-31" style="rounded=0;orthogonalLoop=1;jettySize=auto;html=1;fontSize=11;" edge="1" parent="1" source="5DzCrRQK-NwIQtgQuj1R-13" target="5DzCrRQK-NwIQtgQuj1R-9">
          <mxGeometry relative="1" as="geometry" />
        </mxCell>
        <mxCell id="5DzCrRQK-NwIQtgQuj1R-13" value="Processed&lt;div&gt;Files&lt;/div&gt;" style="strokeWidth=2;html=1;shape=mxgraph.flowchart.multi-document;whiteSpace=wrap;fontSize=11;" vertex="1" parent="1">
          <mxGeometry x="346" y="170" width="88" height="60" as="geometry" />
        </mxCell>
        <mxCell id="5DzCrRQK-NwIQtgQuj1R-32" value="ARCHITECTURE" style="text;html=1;align=left;verticalAlign=middle;whiteSpace=wrap;rounded=0;fontStyle=1;fontSize=28;" vertex="1" parent="1">
          <mxGeometry x="120" y="70" width="60" height="30" as="geometry" />
        </mxCell>
      </root>
    </mxGraphModel>
  </diagram>
</mxfile>
